<svg width="172" height="98" viewBox="0 0 172 98" fill="none" xmlns="http://www.w3.org/2000/svg">
<path fill-rule="evenodd" clip-rule="evenodd" d="M12.2014 97.4012L57.8052 72.7211L17.6816 67.4741L12.2014 97.4012Z" fill="white"/>
<path fill-rule="evenodd" clip-rule="evenodd" d="M0 0V81.5572H73.9388L102.845 0H0Z" fill="white"/>
<path fill-rule="evenodd" clip-rule="evenodd" d="M101.123 0L73.6082 81.5572H172L171.653 0H101.123Z" fill="#FEFEFE"/>
<path fill-rule="evenodd" clip-rule="evenodd" d="M37.6363 30.9363H33.5188V38.4531H37.1864C39.6738 38.4531 42.7963 37.8174 42.7963 34.5331C42.7963 31.5243 39.9437 30.9336 37.6363 30.9336V30.9363ZM43.1111 56.9142L36.1888 44.1053H33.5691V56.9142H25.9614V24.6431H38.1787C44.3284 24.6431 50.4357 27.0136 50.4357 34.398C50.4357 38.7259 47.9033 41.8249 43.7859 43.1041L52.1583 56.9142H43.1111ZM96.3862 56.9142L96.5687 34.0802H96.4338L88.109 56.9116H82.6791L74.5819 34.0802H74.4469L74.6295 56.9116H67.342V24.6484H78.3367L85.6216 45.3396H85.8015L92.7689 24.6484H103.941V56.9169L96.3862 56.9142Z" fill="#010202"/>
<path d="M117 31.3477V25H149V31.3477H137.071V57.5177H128.929V31.3477H117Z" fill="black"/>
</svg>
